<mxfile host="app.diagrams.net" agent="Mozilla/5.0 (X11; Linux x86_64) AppleWebKit/537.36 (KHTML, like Gecko) Chrome/130.0.0.0 Safari/537.36" version="24.9.2">
  <diagram name="Pagina-1" id="I5Z71oniUEVgCP-I0Gfh">
    <mxGraphModel dx="1386" dy="786" grid="1" gridSize="10" guides="1" tooltips="1" connect="1" arrows="1" fold="1" page="1" pageScale="1" pageWidth="827" pageHeight="1169" math="0" shadow="0">
      <root>
        <mxCell id="0" />
        <mxCell id="1" parent="0" />
        <mxCell id="feMUxOZW6V0WXI6CuXrV-4" style="edgeStyle=orthogonalEdgeStyle;rounded=0;orthogonalLoop=1;jettySize=auto;html=1;endArrow=none;endFill=0;entryX=0;entryY=0.5;entryDx=0;entryDy=0;" parent="1" source="feMUxOZW6V0WXI6CuXrV-1" target="feMUxOZW6V0WXI6CuXrV-3" edge="1">
          <mxGeometry relative="1" as="geometry">
            <mxPoint x="570" y="255" as="targetPoint" />
            <mxPoint x="320" y="255" as="sourcePoint" />
          </mxGeometry>
        </mxCell>
        <mxCell id="feMUxOZW6V0WXI6CuXrV-1" value="User" style="shape=umlActor;verticalLabelPosition=bottom;verticalAlign=top;html=1;outlineConnect=0;" parent="1" vertex="1">
          <mxGeometry x="300" y="232.5" width="30" height="60" as="geometry" />
        </mxCell>
        <mxCell id="Gg7fvDdGkaSjZuRiPetu-5" style="edgeStyle=orthogonalEdgeStyle;rounded=0;orthogonalLoop=1;jettySize=auto;html=1;" edge="1" parent="1" source="feMUxOZW6V0WXI6CuXrV-3" target="Gg7fvDdGkaSjZuRiPetu-4">
          <mxGeometry relative="1" as="geometry" />
        </mxCell>
        <mxCell id="feMUxOZW6V0WXI6CuXrV-3" value="Creare ticket" style="ellipse;whiteSpace=wrap;html=1;" parent="1" vertex="1">
          <mxGeometry x="440" y="220" width="130" height="85" as="geometry" />
        </mxCell>
        <mxCell id="Gg7fvDdGkaSjZuRiPetu-3" style="edgeStyle=orthogonalEdgeStyle;rounded=0;orthogonalLoop=1;jettySize=auto;html=1;entryX=0;entryY=1;entryDx=0;entryDy=0;" edge="1" parent="1" source="feMUxOZW6V0WXI6CuXrV-5" target="Gg7fvDdGkaSjZuRiPetu-1">
          <mxGeometry relative="1" as="geometry" />
        </mxCell>
        <mxCell id="feMUxOZW6V0WXI6CuXrV-5" value="Tecnico" style="shape=umlActor;verticalLabelPosition=bottom;verticalAlign=top;html=1;" parent="1" vertex="1">
          <mxGeometry x="281.25" y="500" width="30" height="60" as="geometry" />
        </mxCell>
        <mxCell id="feMUxOZW6V0WXI6CuXrV-6" value="Ritira il suo ticket" style="ellipse;whiteSpace=wrap;html=1;" parent="1" vertex="1">
          <mxGeometry x="30" y="292.5" width="140" height="70" as="geometry" />
        </mxCell>
        <mxCell id="_EuDoNvWkNVFSmqR8_GG-1" value="Zona" style="ellipse;whiteSpace=wrap;html=1;" parent="1" vertex="1">
          <mxGeometry x="650" y="230" width="130" height="85" as="geometry" />
        </mxCell>
        <mxCell id="_EuDoNvWkNVFSmqR8_GG-2" value="Edificio" style="ellipse;whiteSpace=wrap;html=1;" parent="1" vertex="1">
          <mxGeometry x="620" y="110" width="130" height="85" as="geometry" />
        </mxCell>
        <mxCell id="_EuDoNvWkNVFSmqR8_GG-3" value="Tipologia" style="ellipse;whiteSpace=wrap;html=1;" parent="1" vertex="1">
          <mxGeometry x="470" y="60" width="130" height="85" as="geometry" />
        </mxCell>
        <mxCell id="_EuDoNvWkNVFSmqR8_GG-4" value="Include" style="endArrow=open;endSize=12;dashed=1;html=1;rounded=0;exitX=0.5;exitY=0;exitDx=0;exitDy=0;entryX=0.415;entryY=0.965;entryDx=0;entryDy=0;entryPerimeter=0;" parent="1" source="feMUxOZW6V0WXI6CuXrV-3" target="_EuDoNvWkNVFSmqR8_GG-3" edge="1">
          <mxGeometry width="160" relative="1" as="geometry">
            <mxPoint x="500" y="220.5" as="sourcePoint" />
            <mxPoint x="620" y="220" as="targetPoint" />
          </mxGeometry>
        </mxCell>
        <mxCell id="_EuDoNvWkNVFSmqR8_GG-5" value="Include" style="endArrow=open;endSize=12;dashed=1;html=1;rounded=0;exitX=1;exitY=0;exitDx=0;exitDy=0;" parent="1" source="feMUxOZW6V0WXI6CuXrV-3" target="_EuDoNvWkNVFSmqR8_GG-2" edge="1">
          <mxGeometry width="160" relative="1" as="geometry">
            <mxPoint x="560" y="210.5" as="sourcePoint" />
            <mxPoint x="680" y="210" as="targetPoint" />
          </mxGeometry>
        </mxCell>
        <mxCell id="_EuDoNvWkNVFSmqR8_GG-6" value="Include" style="endArrow=open;endSize=12;dashed=1;html=1;rounded=0;exitX=1;exitY=0.5;exitDx=0;exitDy=0;entryX=0;entryY=0.435;entryDx=0;entryDy=0;entryPerimeter=0;" parent="1" target="_EuDoNvWkNVFSmqR8_GG-1" edge="1">
          <mxGeometry width="160" relative="1" as="geometry">
            <mxPoint x="570" y="262.5" as="sourcePoint" />
            <mxPoint x="690" y="262" as="targetPoint" />
          </mxGeometry>
        </mxCell>
        <mxCell id="_EuDoNvWkNVFSmqR8_GG-17" value="Include" style="html=1;verticalAlign=bottom;endArrow=none;dashed=1;endSize=8;curved=0;rounded=0;strokeColor=default;align=center;fontFamily=Helvetica;fontSize=11;fontColor=default;labelBackgroundColor=default;edgeStyle=orthogonalEdgeStyle;exitX=0.5;exitY=0;exitDx=0;exitDy=0;entryX=0.5;entryY=1;entryDx=0;entryDy=0;startArrow=classic;startFill=1;endFill=0;" parent="1" source="_EuDoNvWkNVFSmqR8_GG-18" target="feMUxOZW6V0WXI6CuXrV-6" edge="1">
          <mxGeometry relative="1" as="geometry">
            <mxPoint x="320" y="411.98" as="sourcePoint" />
            <mxPoint x="70" y="396.98" as="targetPoint" />
          </mxGeometry>
        </mxCell>
        <mxCell id="_EuDoNvWkNVFSmqR8_GG-18" value="Check se ticket non&amp;nbsp;&lt;div&gt;è gia programmato,&amp;nbsp;&lt;/div&gt;&lt;div&gt;in svolgimento o finito.&lt;/div&gt;" style="ellipse;whiteSpace=wrap;html=1;fontFamily=Helvetica;fontSize=11;fontColor=default;labelBackgroundColor=default;" parent="1" vertex="1">
          <mxGeometry x="30" y="480" width="170" height="100" as="geometry" />
        </mxCell>
        <mxCell id="PZNHIKQOJJU0oneFGtU9-1" style="edgeStyle=orthogonalEdgeStyle;rounded=0;orthogonalLoop=1;jettySize=auto;html=1;entryX=1.001;entryY=0.444;entryDx=0;entryDy=0;entryPerimeter=0;endArrow=none;endFill=0;" parent="1" source="feMUxOZW6V0WXI6CuXrV-1" target="feMUxOZW6V0WXI6CuXrV-6" edge="1">
          <mxGeometry relative="1" as="geometry" />
        </mxCell>
        <mxCell id="Gg7fvDdGkaSjZuRiPetu-1" value="Crea ticket di manutenzione programmata" style="ellipse;whiteSpace=wrap;html=1;" vertex="1" parent="1">
          <mxGeometry x="350" y="390" width="140" height="70" as="geometry" />
        </mxCell>
        <mxCell id="Gg7fvDdGkaSjZuRiPetu-2" value="Include" style="endArrow=open;endSize=12;dashed=1;html=1;rounded=0;exitX=0.5;exitY=0;exitDx=0;exitDy=0;entryX=0.277;entryY=0.976;entryDx=0;entryDy=0;entryPerimeter=0;" edge="1" parent="1" source="Gg7fvDdGkaSjZuRiPetu-1" target="feMUxOZW6V0WXI6CuXrV-3">
          <mxGeometry width="160" relative="1" as="geometry">
            <mxPoint x="481.25" y="400" as="sourcePoint" />
            <mxPoint x="561.25" y="404.5" as="targetPoint" />
          </mxGeometry>
        </mxCell>
        <mxCell id="Gg7fvDdGkaSjZuRiPetu-4" value="Segue ticket se già esistente" style="ellipse;whiteSpace=wrap;html=1;" vertex="1" parent="1">
          <mxGeometry x="542.25" y="370" width="140" height="70" as="geometry" />
        </mxCell>
      </root>
    </mxGraphModel>
  </diagram>
</mxfile>
